HIERARCHY
ROOT Hips
{
  OFFSET -69.4423 88.0299 51.6846
  CHANNELS 6 Xposition Yposition Zposition Zrotation Xrotation Yrotation
  JOINT Spine
  {
    OFFSET 12.0259 -0.162853 1.93176e-005
    CHANNELS 3 Zrotation Xrotation Yrotation
    JOINT Spine1
    {
      OFFSET 15.3169 -0.0121909 0
      CHANNELS 3 Zrotation Xrotation Yrotation
      JOINT Spine2
      {
        OFFSET 15.3176 -0.0121922 0
        CHANNELS 3 Zrotation Xrotation Yrotation
        JOINT Neck
        {
          OFFSET 19.9142 1.56236 0
          CHANNELS 3 Zrotation Xrotation Yrotation
          JOINT Head
          {
            OFFSET 6.92646 0 0
            CHANNELS 3 Zrotation Xrotation Yrotation
            End Site
            {
              OFFSET 20.7666 0 0
            }
          }
          JOINT LeftShoulder
          {
            OFFSET -4.94072 -1.14703 8.14416
            CHANNELS 3 Zrotation Xrotation Yrotation
            JOINT LeftArm
            {
              OFFSET 14.108 0 -2.74767e-005
              CHANNELS 3 Zrotation Xrotation Yrotation
              JOINT LeftForeArm
              {
                OFFSET 28.5802 -0.0783412 -0.0284884
                CHANNELS 3 Zrotation Xrotation Yrotation
                JOINT LeftHand
                {
                  OFFSET 27.092 0 0
                  CHANNELS 3 Zrotation Xrotation Yrotation
                  End Site
                  {
                    OFFSET 9.55928 -0.186424 0.145352
                  }
                }
              }
            }
          }
          JOINT RightShoulder
          {
            OFFSET -7.15748 -1.33027 -6.24935
            CHANNELS 3 Zrotation Xrotation Yrotation
            JOINT RightArm
            {
              OFFSET 14.108 0 1.82997e-005
              CHANNELS 3 Zrotation Xrotation Yrotation
              JOINT RightForeArm
              {
                OFFSET 28.5802 -0.0707221 2.30684e-005
                CHANNELS 3 Zrotation Xrotation Yrotation
                JOINT RightHand
                {
                  OFFSET 27.092 0 -1.30073e-005
                  CHANNELS 3 Zrotation Xrotation Yrotation
                  End Site
                  {
                    OFFSET 9.55929 -0.186417 -0.145354
                  }
                }
              }
            }
          }
        }
      }
    }
  }
  JOINT LeftUpLeg
  {
    OFFSET 0.00499725 -0.534999 8.837
    CHANNELS 3 Zrotation Xrotation Yrotation
    JOINT LeftLeg
    {
      OFFSET 39.9035 -0.00124594 0.000252775
      CHANNELS 3 Zrotation Xrotation Yrotation
      JOINT LeftFoot
      {
        OFFSET 39.6689 0 0
        CHANNELS 3 Zrotation Xrotation Yrotation
        JOINT LeftToe
        {
          OFFSET 10.1624 13.6296 0
          CHANNELS 3 Zrotation Xrotation Yrotation
          End Site
          {
            OFFSET 8.38147 0 0
          }
        }
      }
    }
  }
  JOINT RightUpLeg
  {
    OFFSET 0.00499725 -0.535 -8.837
    CHANNELS 3 Zrotation Xrotation Yrotation
    JOINT RightLeg
    {
      OFFSET 39.9036 -0.000268477 0.000106433
      CHANNELS 3 Zrotation Xrotation Yrotation
      JOINT RightFoot
      {
        OFFSET 39.6689 1.17892e-005 0
        CHANNELS 3 Zrotation Xrotation Yrotation
        JOINT RightToe
        {
          OFFSET 10.1624 13.6296 0
          CHANNELS 3 Zrotation Xrotation Yrotation
          End Site
          {
            OFFSET 8.38147 0 0
          }
        }
      }
    }
  }
}
MOTION
Frames:	16
Frame Time:	0.0333333
64.0624 88.4331 -114.386 126.926 84.6767 -38.306 1.41465 2.04906 0.270485 2.82232 4.10466 0.490837 2.82232 4.10466 0.490824 -15.4972 -5.08885 -14.8977 39.2836 -4.94607 19.0465 -167.857 -8.52208 -96.8115 -14.303 11.3254 85.2994 -20.1952 1.98045 -13.0955 5.12352 -80.2045 7.29261 -167.472 -9.82218 71.4844 -19.9983 -0.948005 -86.201 -25.2964 -3.28333 15.5094 3.31383 83.5637 -3.22227 -20.8422 1.43657 -178.578 -14.973 0.71822 -1.58545 -9.10964 7.44879 1.80291 90 -7.95139e-016 -7.95139e-015 9.15336 -2.12289 -174.824 -29.2693 -0.683811 -0.277059 -12.4644 -2.67689 -0.525249 90 3.97569e-015 -7.95139e-016 
64.5473 88.8372 -111.361 125.407 85.4256 -35.8123 1.47328 1.83698 0.0861827 2.94604 3.67604 0.125317 2.94602 3.67603 0.125304 -15.988 -4.86714 -15.0451 39.6365 -4.53141 19.0912 -167.332 -8.41401 -96.9133 -15.6276 10.7756 85.3985 -20.631 2.06894 -13.3494 6.44861 -83.1649 9.16263 -166.979 -9.77018 71.3618 -19.4969 -1.90017 -86.341 -24.5535 -3.09998 15.1018 2.67751 82.4945 -2.564 -17.3765 2.89658 -179.98 -13.3583 0.77435 -1.57905 -7.97645 8.78593 2.03827 90 1.07344e-014 1.59028e-015 3.92806 -4.4139 -177.122 -39.4052 -0.518633 -0.447895 -20.1898 -4.80865 -1.5948 90 4.77083e-015 1.98785e-016 
65.01 89.0542 -108.639 129.801 86.6212 -39.3258 1.53301 1.47808 -0.00722045 3.06773 2.95593 -0.0538855 3.06772 2.95591 -0.0538901 -16.112 -4.79095 -15.1521 39.2557 -4.67892 18.7432 -167.194 -8.32559 -97.0561 -16.6581 10.3335 85.5417 -21.6031 2.1936 -13.895 8.87153 -83.314 10.8912 -166.867 -9.74109 71.2737 -19.0828 -2.86351 -86.1244 -24.3898 -3.06162 15.0067 2.52457 81.9442 -2.37856 -14.0121 3.10957 178.493 -11.3537 0.81414 -1.5821 -7.44881 9.86732 2.23421 90 -3.97569e-015 1.43125e-014 -1.61193 -6.36351 -179.44 -49.0039 -0.233502 -0.543219 -28.0432 -3.5225 -1.18785 90 3.57812e-014 3.12092e-014 
65.4255 89.2559 -105.93 133.312 87.8542 -41.727 1.59599 1.10047 -0.165379 3.19604 2.19638 -0.361303 3.19603 2.19637 -0.361311 -15.831 -4.6135 -14.4134 38.4245 -4.76879 17.6728 -167.302 -7.79876 -96.4724 -18.4247 9.91094 85.4349 -22.8593 2.40278 -14.5754 8.64238 -84.1539 10.896 -167.004 -9.30443 71.9293 -18.2832 -3.63612 -86.0501 -24.3224 -3.05276 14.9828 2.43674 81.7014 -2.31374 -9.41715 2.84728 176.727 -7.31452 0.827805 -1.60631 -7.96753 10.5672 2.38072 90 -1.82882e-014 -2.06736e-014 -6.99812 -7.69718 177.929 -57.6486 -0.0378533 -0.506649 -29.3177 -1.74922 -0.0846821 90 3.81667e-014 3.75703e-014 
65.7489 89.4843 -103.315 158.433 88.8382 -66.2877 1.60211 0.705836 -0.218075 3.20725 1.40578 -0.455709 3.20724 1.40577 -0.455721 -15.9818 -4.45579 -14.7261 38.5897 -4.47155 17.7367 -167.133 -7.66193 -96.843 -20.334 9.29408 85.0578 -24.1175 2.62368 -15.2576 8.79461 -84.8167 11.221 -166.887 -9.28569 71.6433 -17.1188 -4.25705 -85.994 -24.5562 -3.10626 15.1003 2.35249 81.9736 -2.23874 -4.26592 2.11944 175.536 -1.47768 0.80768 -1.64444 -9.28089 11.3699 2.61051 90 -5.36719e-015 7.95139e-015 -12.4208 -8.64892 176.032 -64.4526 0.0217843 -0.379882 -23.9899 0.932477 1.36907 90 1.74931e-014 3.93594e-014 
65.8999 89.5778 -100.902 -117.461 88.6925 -150.158 1.6865 0.228221 -0.195696 3.37389 0.451085 -0.397858 3.37388 0.451072 -0.39787 -16.4153 -4.13929 -14.4314 38.7826 -4.03653 17.3004 -166.545 -7.25282 -96.5805 -21.8814 7.68687 84.3415 -24.7442 2.75259 -15.6352 10.9144 -85.6313 13.5681 -166.371 -9.06294 71.9189 -15.9812 -4.51857 -85.7839 -24.9057 -3.19246 15.2827 2.37261 82.2225 -2.25772 -2.39201 1.08611 175.056 -1.51349 0.844977 -1.61399 -8.54239 11.6388 2.51606 90 -1.94809e-014 1.59028e-014 -17.1672 -9.00613 174.965 -68.3627 0.0232141 -0.262463 -18.3345 3.36259 2.08198 90 1.11319e-014 5.56597e-015 
66.203 89.485 -98.086 -95.7868 88.8711 -171.164 1.69525 0.0982635 -0.294584 3.36788 0.188315 -0.591774 3.36788 0.188316 -0.591788 -16.3597 -3.94677 -14.3742 39.1563 -3.70134 17.0732 -166.499 -6.95597 -96.5991 -23.367 6.80404 83.432 -25.3879 2.86071 -15.9932 12.2064 -86.2353 14.7809 -166.39 -8.8783 71.9531 -14.9877 -5.04102 -85.6625 -25.3812 -3.30164 15.5182 2.46479 83.1432 -2.37848 -1.12336 1.73886 174.142 -4.01484 0.92543 -1.49417 -5.60276 11.1278 1.88213 90 -5.56597e-015 -7.95139e-015 -21.2781 -7.04693 174 -69.386 -0.0210802 -0.161332 -14.8085 2.68072 1.43305 90 -1.59028e-015 -7.15625e-015 
66.3695 89.1657 -95.3156 -61.8976 89.22 155.375 1.6918 0.047773 -0.363886 3.37346 0.0852968 -0.728881 3.37346 0.0852985 -0.728898 -16.3289 -3.81609 -14.2804 39.4304 -3.41448 16.986 -166.453 -6.73678 -96.5981 -23.8941 6.08476 82.5148 -26.3823 3.04172 -16.5311 6.89077 -84.596 9.29641 -166.398 -8.75472 72.0508 -14.9407 -5.9223 -85.8114 -25.8317 -3.41667 15.7516 3.56029 84.7333 -3.44516 -0.187125 2.78593 173.497 -7.35595 0.996881 -1.31422 -1.22485 10.8907 1.14531 90 0 -1.11319e-014 -24.5761 -4.57591 174.101 -67.9307 -0.0954375 -0.0805755 -9.31466 1.91669 0.677957 90 -8.74653e-015 -4.77083e-015 
66.3888 88.7519 -93.0733 -76.637 87.9893 170.228 1.68128 -0.34026 -0.321752 3.36081 -0.689338 -0.633197 3.3608 -0.689338 -0.633211 -16.5457 -3.7158 -14.6984 39.5788 -3.14891 17.273 -166.238 -6.71722 -97.0654 -25.6594 5.29314 81.5508 -27.493 3.25703 -17.1347 8.07697 -85.3767 10.4578 -166.245 -8.89671 71.6774 -14.5791 -6.12493 -85.6248 -26.0032 -3.46783 15.8551 3.96119 85.0066 -3.8678 -0.925953 2.46394 173.517 -11.9111 1.04104 -1.17156 1.84969 10.5562 0.753244 90 -3.57812e-015 1.59028e-015 -27.5077 -3.51887 174.46 -63.97 -0.132885 -0.00166634 -4.6561 2.41135 0.388069 90 -2.38542e-015 2.38542e-015 
66.4715 88.504 -90.6876 -81.8979 87.1865 175.764 1.64698 -0.663761 -0.303662 3.29078 -1.33547 -0.58803 3.29077 -1.33548 -0.588053 -16.8804 -3.53171 -14.7638 39.6774 -2.98766 17.0286 -165.848 -6.55367 -97.1897 -26.8372 4.56118 80.8342 -28.5235 3.46477 -17.6906 10.7955 -86.3851 13.1003 -165.9 -8.8375 71.6368 -14.2609 -6.36575 -85.3289 -26.1676 -3.50387 15.9336 3.21526 84.2619 -3.14388 0.180422 1.41408 173.178 -12.6416 1.06551 -1.12783 2.12536 9.63203 0.643263 90 -3.77691e-015 7.15625e-015 -29.5569 -2.64794 174.485 -57.6468 -0.146243 0.110255 -1.47774 4.20366 0.39876 90 3.18055e-015 3.18055e-015 
66.4499 88.414 -88.1847 -84.7076 86.5778 178.411 1.63868 -0.859773 -0.219896 3.27463 -1.72501 -0.415046 3.27461 -1.72501 -0.41506 -17.1327 -3.53819 -14.6318 39.5841 -3.26739 16.707 -165.552 -6.49862 -97.1051 -28.4988 4.14141 79.9785 -29.7812 3.72819 -18.3455 14.4806 -87.4122 16.8119 -165.636 -8.85959 71.8137 -13.6972 -6.34993 -85.1547 -25.9527 -3.45573 15.8184 3.49574 84.4278 -3.42362 2.52688 0.672945 173.415 -10.9241 1.07266 -1.13741 1.96137 9.78581 0.637479 90 -1.13307e-014 -1.59028e-015 -30.3756 -2.17839 174.971 -48.9324 -0.161559 0.235462 -1.24711 5.69875 0.650885 90 -1.90833e-014 -1.90833e-014 
66.4506 88.3187 -85.617 -86.7665 86.0675 -179.348 1.62061 -1.05096 -0.199463 3.23846 -2.10662 -0.366794 3.23845 -2.10663 -0.366806 -17.554 -3.3744 -14.6402 39.9904 -3.07234 16.5574 -165.071 -6.37175 -97.1536 -29.7513 3.60328 79.291 -30.6592 3.90321 -18.8081 13.0819 -87.4187 15.3001 -165.196 -8.79771 71.8309 -13.2321 -6.58089 -85.043 -25.9216 -3.45074 15.7964 3.46697 84.1996 -3.38679 5.51886 0.20147 173.385 -8.34214 1.07358 -1.15073 2.249 10.0184 0.555022 90 -6.75868e-015 -1.66979e-014 -30.3801 -1.73245 175.019 -39.5161 -0.1635 0.375175 -2.39369 6.32923 0.994965 90 3.97569e-015 1.59028e-015 
66.4645 88.1972 -82.922 -86.9545 85.5785 -178.855 1.64055 -1.20238 -0.199655 3.27823 -2.40944 -0.360282 3.27823 -2.40943 -0.360294 -17.6348 -3.29126 -14.8505 39.6908 -2.88987 16.7086 -164.957 -6.31422 -97.4004 -31.4043 3.11121 78.5287 -31.3737 4.06342 -19.1852 9.91708 -86.8682 12.1888 -165.123 -8.80354 71.622 -12.6816 -6.5474 -84.8331 -25.6201 -3.37587 15.6268 3.36128 83.911 -3.2792 8.49534 -0.7585 173.337 -5.94488 1.07294 -1.20579 2.41367 10.0512 0.546967 90 -7.55382e-015 1.03368e-014 -29.9772 -1.13218 174.886 -30.8711 -0.163595 0.515795 -3.16933 5.36914 0.964278 90 -1.1778e-014 7.95139e-015 
66.3754 88.0856 -80.247 -87.9573 85.0501 -177.671 1.59462 -1.28026 -0.202217 3.18604 -2.56499 -0.362792 3.18603 -2.56499 -0.362809 -17.3854 -3.42295 -14.6873 39.5374 -3.25066 16.4905 -165.172 -6.26527 -97.2827 -33.2024 3.08911 77.8564 -31.9131 4.17758 -19.4565 11.5625 -87.2407 13.8597 -165.38 -8.78601 71.7876 -12.1787 -7.07848 -84.9406 -25.6012 -3.37642 15.6211 3.31161 83.8055 -3.24614 12.1844 -2.09512 173.57 -1.82524 1.07237 -1.34378 1.42285 10.2808 0.725086 90 -1.53064e-014 -2.38542e-015 -29.6582 -0.0194569 174.999 -24.7478 -0.162831 0.61562 -2.03697 4.91274 0.746586 90 -7.8023e-015 -8.34896e-015 
66.2768 87.9444 -77.556 -90.595 84.5442 -174.843 1.55036 -1.36687 -0.199171 3.09729 -2.73813 -0.361266 3.09728 -2.73813 -0.361287 -17.6456 -3.37952 -14.7268 39.7401 -3.081 16.6886 -164.888 -6.25817 -97.2946 -34.0749 2.48397 77.3123 -31.8943 4.17662 -19.4688 11.4832 -87.1669 13.8095 -165.127 -8.83672 71.7637 -11.5118 -7.11402 -84.9269 -25.2045 -3.27778 15.4016 3.08382 83.3288 -3.01264 13.4785 -3.14187 173.733 -1.81982 1.07289 -1.33719 1.59939 9.89458 0.666226 90 -1.07344e-014 -1.35174e-014 -29.3181 0.517278 175.113 -21.0459 -0.160045 0.653491 -1.89373 5.15498 0.804041 90 -1.09332e-014 -2.0276e-014 
66.0569 87.8279 -74.82 -90.9457 84.8453 -174.443 1.54735 -1.32271 -0.177112 3.09571 -2.64924 -0.31834 3.0957 -2.64924 -0.318361 -17.9008 -3.29813 -14.764 40.0759 -3.01413 16.5843 -164.598 -6.19105 -97.2561 -33.225 1.1542 77.1498 -30.8622 3.95687 -18.9954 8.64183 -86.1912 10.9397 -164.872 -8.84963 71.695 -10.5338 -6.94346 -84.8837 -24.5223 -3.12233 15.0478 2.81105 82.683 -2.73581 15.0914 -3.35878 173.929 -1.83148 1.09251 -1.30882 1.30656 9.62524 0.656125 90 -1.0138e-014 -7.95139e-016 -28.9959 -0.983779 175.56 -20.7574 -0.161624 0.636422 -2.95348 2.93237 0.457777 90 1.86982e-015 7.15625e-015 
